<svg xmlns="http://www.w3.org/2000/svg" width="1024" height="1024" viewBox="0 0 1024 1024" version="1.1"><path d="M 269.250 229.745 C 274.063 229.928, 281.938 229.928, 286.750 229.745 C 291.563 229.561, 287.625 229.411, 278 229.411 C 268.375 229.411, 264.438 229.561, 269.250 229.745 M 348.083 241.400 C 348.944 242.226, 361.352 246.981, 361.711 246.622 C 361.918 246.416, 359.137 245.067, 355.533 243.624 C 349.347 241.147, 347.131 240.486, 348.083 241.400 M 182.750 251.062 C 178.488 253.241, 175 255.249, 175 255.523 C 175 255.970, 190.900 248.320, 191.917 247.384 C 193.334 246.079, 189.447 247.639, 182.750 251.062 M 365.083 248.380 C 366.103 249.309, 376 253.982, 376 253.534 C 376 252.970, 366.450 248, 365.367 248 C 364.982 248, 364.854 248.171, 365.083 248.380 M 378.378 255.196 C 379.411 255.913, 385.492 259.931, 391.892 264.124 C 405.170 272.825, 417.892 283.814, 432.929 299.572 C 438.664 305.582, 441.463 308.171, 439.148 305.325 C 424.861 287.759, 399.730 266.522, 381.500 256.610 C 378.750 255.115, 377.345 254.479, 378.378 255.196 M 306.039 258.928 C 305.341 260.231, 305.255 261.633, 305.810 262.625 C 306.520 263.893, 306.841 263.547, 307.359 260.953 C 308.153 256.985, 307.563 256.080, 306.039 258.928 M 325.141 268 C 325.141 273.067, 325.419 274.851, 326 273.500 C 326.473 272.400, 326.859 269.925, 326.859 268 C 326.859 266.075, 326.473 263.600, 326 262.500 C 325.419 261.149, 325.141 262.933, 325.141 268 M 147.500 273.364 C 143.650 276.293, 139.825 279.520, 139 280.535 C 138.175 281.550, 139.991 280.382, 143.035 277.940 C 146.079 275.498, 150.129 272.284, 152.035 270.797 C 153.941 269.310, 155.275 268.081, 155 268.066 C 154.725 268.050, 151.350 270.434, 147.500 273.364 M 355.302 269.332 C 355.686 270.339, 356.007 271.689, 356.015 272.332 C 356.026 273.133, 356.286 273.098, 356.843 272.219 C 357.739 270.808, 363.108 275.478, 370.963 284.500 C 375.864 290.129, 374.540 287.940, 368.726 280.801 C 364.030 275.034, 354.311 266.731, 355.302 269.332 M 289.469 285.250 L 283.500 291.500 289.750 285.531 C 295.556 279.987, 296.458 279, 295.719 279 C 295.564 279, 292.751 281.813, 289.469 285.250 M 124.500 294 C 117.917 300.600, 112.756 306, 113.031 306 C 113.306 306, 118.917 300.600, 125.500 294 C 132.083 287.400, 137.244 282, 136.969 282 C 136.694 282, 131.083 287.400, 124.500 294 M 325.666 288.919 C 325.298 292.445, 325.185 295.518, 325.416 295.749 C 326.034 296.367, 327.288 285.364, 326.775 283.824 C 326.534 283.101, 326.035 285.393, 325.666 288.919 M 359.370 294 C 359.370 299.775, 359.535 302.137, 359.737 299.250 C 359.939 296.363, 359.939 291.637, 359.737 288.750 C 359.535 285.863, 359.370 288.225, 359.370 294 M 288.500 296.370 C 284.650 300.372, 279.925 304.894, 278 306.418 L 274.500 309.189 278.500 306.443 C 283.507 303.005, 289.269 297.626, 293.169 292.750 C 297.549 287.273, 296.374 288.185, 288.500 296.370 M 378.990 295.938 C 381.219 299.479, 383.328 302.629, 383.678 302.938 C 385.065 304.165, 379.614 295.059, 377.353 292.370 C 376.025 290.792, 376.762 292.397, 378.990 295.938 M 267 300.500 C 263.425 302.372, 260.850 303.925, 261.279 303.951 C 262.342 304.018, 274 298.092, 274 297.486 C 274 296.813, 274.235 296.713, 267 300.500 M 358.150 307.125 C 358.067 308.569, 357.777 311.269, 357.503 313.125 L 357.007 316.500 358.060 313.144 C 358.639 311.298, 358.929 308.598, 358.706 307.144 L 358.300 304.500 358.150 307.125 M 105.723 315.250 C 97.815 325.466, 91.335 335, 92.299 335 C 92.529 335, 94.421 332.413, 96.504 329.250 C 98.588 326.087, 103.176 319.788, 106.700 315.250 C 110.225 310.712, 112.884 307, 112.609 307 C 112.334 307, 109.235 310.712, 105.723 315.250 M 446.925 316.250 C 449.299 319.413, 451.439 322, 451.682 322 C 452.365 322, 445.786 313.063, 444.103 311.705 C 443.282 311.042, 444.552 313.087, 446.925 316.250 M 455.592 328.250 C 457.622 331.413, 459.470 334, 459.698 334 C 460.368 334, 456.750 328.204, 454.226 325.235 C 452.947 323.731, 453.562 325.087, 455.592 328.250 M 185.250 332.030 C 182.363 333.686, 180 335.275, 180 335.562 C 180 336.109, 188.802 331.285, 190.450 329.835 C 192.202 328.295, 190.539 328.997, 185.250 332.030 M 351.188 334.688 C 350.028 337.836, 349.242 340.575, 349.442 340.775 C 349.641 340.975, 350.764 338.573, 351.938 335.438 C 353.111 332.302, 353.896 329.563, 353.683 329.350 C 353.470 329.137, 352.347 331.539, 351.188 334.688 M 213.688 332.183 C 210.491 333.297, 208.050 334.383, 208.264 334.597 C 208.478 334.811, 211.768 333.898, 215.576 332.567 C 219.384 331.237, 221.825 330.151, 221 330.153 C 220.175 330.156, 216.884 331.069, 213.688 332.183 M 305.677 338.750 C 301.239 344.785, 288.931 356.656, 282.750 360.863 C 280.137 362.641, 278 364.321, 278 364.596 C 278 365.931, 288.389 357.780, 295.609 350.781 C 302.733 343.875, 310.994 334, 309.647 334 C 309.385 334, 307.598 336.137, 305.677 338.750 M 165.945 345.343 C 154.521 354.814, 137.853 373.545, 133.791 381.478 C 132.202 384.581, 134.164 382.201, 139.544 374.500 C 144.545 367.342, 160.925 350.201, 169 343.676 C 171.475 341.676, 173.250 340.030, 172.945 340.020 C 172.639 340.009, 169.489 342.404, 165.945 345.343 M 83.448 350.102 C 81.481 354.009, 80.035 357.368, 80.234 357.567 C 80.433 357.767, 82.258 354.570, 84.290 350.465 C 86.321 346.359, 87.768 343, 87.504 343 C 87.241 343, 85.416 346.196, 83.448 350.102 M 178.933 348.033 C 174.295 350.801, 168.700 354.647, 166.500 356.580 C 163.398 359.306, 163.943 359.062, 168.931 355.495 C 172.468 352.965, 178.206 349.305, 181.681 347.362 C 187.138 344.310, 188.941 343, 187.683 343 C 187.508 343, 183.571 345.265, 178.933 348.033 M 468.208 350.468 C 469.962 354.025, 471.563 356.771, 471.764 356.569 C 472.211 356.122, 466.165 344, 465.495 344 C 465.233 344, 466.454 346.911, 468.208 350.468 M 274.146 351.462 C 267.528 355.680, 266.148 357.058, 271.500 354.107 C 275.540 351.878, 280.923 348.042, 280 348.048 C 279.725 348.050, 277.091 349.586, 274.146 351.462 M 399.360 361 C 399.360 366.225, 399.529 368.363, 399.735 365.750 C 399.941 363.137, 399.941 358.863, 399.735 356.250 C 399.529 353.637, 399.360 355.775, 399.360 361 M 259 360 C 254.875 362.146, 251.849 363.923, 252.275 363.951 C 253.338 364.018, 267 357.094, 267 356.487 C 267 355.812, 267.329 355.668, 259 360 M 390.945 362.684 C 392.852 366.632, 392.317 367.299, 387.750 366.672 C 384.868 366.276, 384.144 366.373, 385.500 366.974 C 391.548 369.652, 395.070 366.967, 391.445 362.441 C 389.943 360.566, 389.926 360.574, 390.945 362.684 M 331.504 368.250 C 328.855 371.688, 327.583 373.710, 328.678 372.746 C 330.748 370.920, 337.426 362, 336.723 362 C 336.502 362, 334.153 364.813, 331.504 368.250 M 240.751 367.764 C 235.940 369.729, 232.173 371.506, 232.380 371.714 C 232.812 372.146, 251 364.997, 251 364.395 C 251 363.689, 249.631 364.139, 240.751 367.764 M 358.160 365.184 C 355.773 365.717, 354.020 366.353, 354.264 366.597 C 354.508 366.842, 357.129 366.522, 360.087 365.888 C 363.117 365.238, 369.405 364.948, 374.483 365.224 C 379.442 365.493, 382.150 365.381, 380.500 364.975 C 376.219 363.921, 363.269 364.042, 358.160 365.184 M 145.142 375.750 C 140.742 380.563, 136.165 385.850, 134.973 387.500 L 132.805 390.500 135.511 387.500 C 137 385.850, 141.801 380.563, 146.181 375.750 C 150.561 370.938, 153.919 367, 153.644 367 C 153.369 367, 149.543 370.938, 145.142 375.750 M 73.111 375.138 C 71.950 378.576, 71.033 381.863, 71.074 382.444 C 71.115 383.025, 72.237 380.384, 73.567 376.576 C 74.898 372.768, 75.814 369.480, 75.604 369.270 C 75.393 369.060, 74.272 371.701, 73.111 375.138 M 260 374.500 C 255.325 376.920, 251.847 378.922, 252.272 378.950 C 253.335 379.019, 269 371.096, 269 370.489 C 269 369.811, 269.424 369.622, 260 374.500 M 477.653 372 C 478.793 376.505, 481.130 382.007, 480.461 378.610 C 480.148 377.021, 479.246 374.321, 478.456 372.610 C 477.376 370.271, 477.177 370.120, 477.653 372 M 311.434 390.009 C 303.148 398.254, 296.628 405, 296.947 405 C 297.265 405, 304.264 398.250, 312.500 390 C 320.736 381.750, 327.256 375.004, 326.987 375.009 C 326.719 375.014, 319.720 381.764, 311.434 390.009 M 211.500 379.478 C 208.750 380.774, 206.950 381.843, 207.500 381.855 C 208.050 381.867, 210.750 380.817, 213.500 379.522 C 216.250 378.226, 218.050 377.157, 217.500 377.145 C 216.950 377.133, 214.250 378.183, 211.500 379.478 M 192.750 388.060 C 186.287 391.336, 181 394.241, 181 394.516 C 181 394.963, 204.900 383.328, 205.917 382.386 C 207.471 380.946, 202.888 382.921, 192.750 388.060 M 129.351 395.045 C 127.457 397.908, 126.442 398.716, 125.881 397.808 C 125.355 396.956, 125.143 397.253, 125.252 398.693 C 125.342 399.886, 125.766 400.645, 126.195 400.380 C 127.304 399.694, 133.206 391, 132.562 391 C 132.269 391, 130.824 392.820, 129.351 395.045 M 358.250 393.119 C 356.462 393.635, 355 394.300, 355 394.596 C 355 394.892, 356.012 394.811, 357.250 394.415 C 358.488 394.018, 361.975 393.372, 365 392.978 C 370.465 392.267, 370.471 392.262, 366 392.221 C 363.525 392.199, 360.038 392.603, 358.250 393.119 M 377.102 396.277 C 378.971 397.529, 381.962 400.730, 383.750 403.390 C 385.538 406.050, 387 407.793, 387 407.263 C 387 404.473, 377.301 394, 374.717 394 C 374.160 394, 375.233 395.024, 377.102 396.277 M 403.140 398.545 C 404.935 401.045, 407.076 403.632, 407.897 404.295 C 408.718 404.958, 407.448 402.913, 405.075 399.750 C 399.968 392.945, 398.431 391.988, 403.140 398.545 M 173.599 398.483 C 167.568 402.114, 158 408.898, 158 409.543 C 158 409.748, 162.192 407.122, 167.315 403.708 C 172.439 400.294, 177.501 396.964, 178.565 396.309 C 179.629 395.654, 180.249 395.091, 179.941 395.059 C 179.634 395.026, 176.780 396.567, 173.599 398.483 M 200.750 400.560 C 194.838 403.562, 190 406.242, 190 406.517 C 190 406.964, 211.900 396.326, 212.917 395.386 C 214.443 393.973, 210.024 395.852, 200.750 400.560 M 64.462 411.462 C 64.075 414.558, 63.974 417.308, 64.238 417.572 C 64.502 417.836, 65.018 415.502, 65.385 412.385 C 65.751 409.268, 65.851 406.518, 65.608 406.274 C 65.364 406.031, 64.848 408.365, 64.462 411.462 M 284.964 415.750 C 274.947 426.329, 270.301 431.831, 267.442 436.500 C 264.775 440.857, 266.176 439.364, 271.296 432.396 C 273.762 429.039, 280.292 421.727, 285.807 416.146 C 291.321 410.566, 295.465 406, 295.014 406 C 294.564 406, 290.041 410.387, 284.964 415.750 M 150.288 415.750 C 145.342 420.502, 145.188 420.735, 149.402 417.091 C 156.560 410.901, 157.507 410, 156.851 410 C 156.533 410, 153.580 412.587, 150.288 415.750 M 378.768 412.725 C 380.565 412.947, 383.265 412.943, 384.768 412.715 C 386.271 412.486, 384.800 412.304, 381.500 412.310 C 378.200 412.315, 376.971 412.502, 378.768 412.725 M 63.310 424.500 C 63.315 427.800, 63.502 429.029, 63.725 427.232 C 63.947 425.435, 63.943 422.735, 63.715 421.232 C 63.486 419.729, 63.304 421.200, 63.310 424.500 M 227.500 424.658 C 219.486 429.305, 217.913 431.091, 225.500 426.929 C 232.700 422.980, 235.791 420.968, 234.473 421.089 C 233.938 421.139, 230.800 422.744, 227.500 424.658 M 136.966 428.750 L 131.500 434.500 137.250 429.034 C 142.592 423.956, 143.458 423, 142.716 423 C 142.560 423, 139.972 425.587, 136.966 428.750 M 151.732 434.250 C 142.004 443.837, 141.919 443.953, 150.416 436.049 C 155.412 431.401, 160.387 426.788, 161.472 425.799 C 162.557 424.810, 163.149 424, 162.789 424 C 162.428 424, 157.452 428.613, 151.732 434.250 M 489.310 429.500 C 489.315 432.800, 489.502 434.029, 489.725 432.232 C 489.947 430.435, 489.943 427.735, 489.715 426.232 C 489.486 424.729, 489.304 426.200, 489.310 429.500 M 219 435.346 C 213.775 439.383, 206.125 445.961, 202 449.963 C 197.875 453.966, 196.750 455.289, 199.500 452.903 C 202.250 450.517, 205.850 447.292, 207.500 445.735 C 209.150 444.179, 214.662 439.712, 219.750 435.809 C 227.905 429.553, 229.707 427.991, 228.750 428.003 C 228.613 428.005, 224.225 431.309, 219 435.346 M 208.237 436.527 C 205.356 438.466, 203 440.271, 203 440.537 C 203 440.803, 205.475 439.377, 208.500 437.369 C 213.306 434.178, 214.718 433, 213.737 433 C 213.592 433, 211.117 434.587, 208.237 436.527 M 62.360 444 C 62.360 449.225, 62.529 451.363, 62.735 448.750 C 62.941 446.137, 62.941 441.863, 62.735 439.250 C 62.529 436.637, 62.360 438.775, 62.360 444 M 127.156 440.250 C 125.006 443.137, 122.733 446.625, 122.103 448 C 121.133 450.120, 121.152 450.214, 122.230 448.620 C 122.928 447.585, 125.412 444.098, 127.748 440.870 C 130.084 437.641, 131.786 435, 131.530 435 C 131.274 435, 129.306 437.363, 127.156 440.250 M 195 446.089 C 187.281 452.085, 177.440 461.563, 171.734 468.500 C 169.472 471.250, 171.692 469.225, 176.667 464 C 181.643 458.775, 189.379 451.622, 193.857 448.106 C 200.995 442.500, 202.731 440.942, 201.750 441.020 C 201.613 441.031, 198.575 443.312, 195 446.089 M 421.500 453.556 C 418.200 454.835, 415.982 455.908, 416.572 455.941 C 418.350 456.039, 426.957 452.879, 427.558 451.906 C 427.866 451.408, 427.979 451.052, 427.809 451.116 C 427.639 451.179, 424.800 452.278, 421.500 453.556 M 189.790 463.250 C 184.932 469.093, 182.019 473.030, 183.686 471.500 C 185.563 469.777, 195.096 458, 194.614 458 C 194.361 458, 192.190 460.363, 189.790 463.250 M 257.328 470.500 C 257.333 474.350, 257.513 475.802, 257.730 473.728 C 257.946 471.653, 257.943 468.503, 257.722 466.728 C 257.501 464.952, 257.324 466.650, 257.328 470.500 M 123.450 471.099 C 122.028 473.904, 121.033 476.367, 121.238 476.571 C 121.443 476.776, 122.818 474.482, 124.295 471.472 C 125.771 468.462, 126.766 466, 126.506 466 C 126.246 466, 124.871 468.295, 123.450 471.099 M 164.218 478.250 C 160.568 483.640, 159.779 485, 160.299 485 C 160.529 485, 162.360 482.525, 164.369 479.500 C 166.377 476.475, 167.812 474, 167.558 474 C 167.304 474, 165.801 475.913, 164.218 478.250 M 484.208 490.708 C 483.004 496.013, 482.200 500.533, 482.420 500.753 C 482.640 500.974, 483.820 496.828, 485.042 491.542 C 486.263 486.255, 487.068 481.735, 486.830 481.497 C 486.592 481.259, 485.412 485.404, 484.208 490.708 M 410.004 483.992 C 409.418 485.088, 407.265 486.868, 405.219 487.948 C 403.174 489.028, 401.950 489.930, 402.500 489.952 C 404.292 490.025, 409.845 486.158, 410.971 484.054 C 411.576 482.924, 411.845 482, 411.570 482 C 411.295 482, 410.591 482.896, 410.004 483.992 M 156.450 491.099 C 155.028 493.904, 154.033 496.367, 154.238 496.571 C 154.443 496.776, 155.818 494.482, 157.295 491.472 C 158.771 488.462, 159.766 486, 159.506 486 C 159.246 486, 157.871 488.295, 156.450 491.099 M 385.652 490.750 C 385.396 491.163, 387.732 491.373, 390.843 491.217 C 400.610 490.730, 401.788 490.305, 393.809 490.150 C 389.579 490.067, 385.908 490.337, 385.652 490.750 M 390.784 495.738 C 393.689 495.941, 398.189 495.939, 400.784 495.734 C 403.378 495.528, 401 495.363, 395.500 495.365 C 390 495.368, 387.878 495.536, 390.784 495.738 M 106.336 503 C 106.336 507.125, 106.513 508.813, 106.728 506.750 C 106.944 504.688, 106.944 501.313, 106.728 499.250 C 106.513 497.188, 106.336 498.875, 106.336 503 M 408.777 497.557 C 411.624 499.550, 411.676 503.800, 408.902 507.615 L 406.805 510.500 409.402 507.694 C 413.277 503.510, 412.022 496, 407.449 496 C 406.957 496, 407.555 496.701, 408.777 497.557 M 223.310 505.500 C 223.315 508.800, 223.502 510.029, 223.725 508.232 C 223.947 506.435, 223.943 503.735, 223.715 502.232 C 223.486 500.729, 223.304 502.200, 223.310 505.500 M 264.027 500.500 C 264.014 502.033, 269.792 511.756, 271.229 512.620 C 272.257 513.238, 272.257 513.084, 271.230 511.816 C 270.532 510.953, 268.628 507.830, 266.999 504.874 C 265.369 501.918, 264.032 499.950, 264.027 500.500 M 110.823 522.502 C 110.646 527.179, 110.838 531.004, 111.250 531.002 C 111.662 531.001, 112 527.175, 112 522.500 C 112 511.517, 111.241 511.518, 110.823 522.502 M 275.719 518.500 C 280.662 524.522, 285.137 528.749, 290.500 532.460 L 294.500 535.228 290.500 531.951 C 288.300 530.148, 283.151 525.259, 279.058 521.087 C 273.971 515.901, 272.914 515.082, 275.719 518.500 M 210.355 534.500 C 210.352 539.450, 210.521 541.601, 210.731 539.280 C 210.940 536.959, 210.943 532.909, 210.736 530.280 C 210.530 527.651, 210.358 529.550, 210.355 534.500 M 145.365 537.500 C 145.368 543, 145.536 545.122, 145.738 542.216 C 145.941 539.311, 145.939 534.811, 145.734 532.216 C 145.528 529.622, 145.363 532, 145.365 537.500 M 160.310 536.500 C 160.315 539.800, 160.502 541.029, 160.725 539.232 C 160.947 537.435, 160.943 534.735, 160.715 533.232 C 160.486 531.729, 160.304 533.200, 160.310 536.500 M 467.705 536.528 C 466.229 539.538, 465.234 542, 465.494 542 C 466.167 542, 471.211 531.878, 470.762 531.429 C 470.557 531.224, 469.182 533.518, 467.705 536.528 M 301 539.495 C 301 540.165, 313.122 546.211, 313.569 545.764 C 313.771 545.563, 311.025 543.962, 307.468 542.208 C 303.911 540.454, 301 539.233, 301 539.495 M 461.784 547.250 C 460.472 549.587, 458.580 552.850, 457.580 554.500 L 455.763 557.500 457.843 555 C 460.170 552.204, 465.389 543, 464.648 543 C 464.386 543, 463.097 544.913, 461.784 547.250 M 160.310 556.500 C 160.315 559.800, 160.502 561.029, 160.725 559.232 C 160.947 557.435, 160.943 554.735, 160.715 553.232 C 160.486 551.729, 160.304 553.200, 160.310 556.500 M 302.179 559.119 C 296.222 563.011, 287.330 572.391, 284.966 577.277 C 283.747 579.795, 283.043 580.594, 290.757 570.696 C 294.834 565.464, 298.911 561.994, 305.949 557.767 C 308.452 556.264, 310.046 555.026, 309.492 555.017 C 308.937 555.008, 305.646 556.854, 302.179 559.119 M 359.750 556.740 C 363.188 556.936, 368.813 556.936, 372.250 556.740 C 375.688 556.545, 372.875 556.385, 366 556.385 C 359.125 556.385, 356.313 556.545, 359.750 556.740 M 96.668 560.015 C 97.648 561.674, 99.495 564.261, 100.774 565.765 C 102.053 567.269, 101.438 565.913, 99.408 562.750 C 95.561 556.757, 93.569 554.769, 96.668 560.015 M 213.481 561.500 C 214.057 566.095, 215.981 573.353, 216.488 572.844 C 216.676 572.655, 215.963 569.125, 214.904 565 C 213.845 560.875, 213.205 559.300, 213.481 561.500 M 448.610 567.250 C 444.936 572.337, 443.308 574.929, 444.990 573.008 C 448.452 569.056, 456.348 558, 455.708 558 C 455.477 558, 452.283 562.163, 448.610 567.250 M 151.042 571.617 C 150.987 573.070, 155.177 583.156, 155.642 582.691 C 155.838 582.495, 154.893 579.672, 153.541 576.418 C 152.190 573.163, 151.066 571.002, 151.042 571.617 M 425.591 593.347 C 410.142 609.032, 409.849 609.862, 424.825 595.517 C 431.208 589.402, 442.834 576.823, 441.849 577.097 C 441.657 577.151, 434.341 584.463, 425.591 593.347 M 300.612 585.624 C 299.726 588.227, 299.033 590.839, 299.073 591.428 C 299.113 592.018, 300.012 590.061, 301.070 587.080 C 302.128 584.099, 302.821 581.487, 302.609 581.276 C 302.398 581.065, 301.499 583.021, 300.612 585.624 M 124.500 593.858 C 133.707 603.365, 152 619.272, 152 617.770 C 152 617.509, 149.188 615.106, 145.750 612.430 C 142.313 609.754, 134.100 602.390, 127.500 596.065 C 116.694 585.709, 116.395 585.489, 124.500 593.858 M 160.108 592.250 C 162.074 596.005, 171.088 608.828, 172.704 610.169 C 173.537 610.861, 171.648 607.844, 168.507 603.465 C 165.365 599.086, 162.154 594.265, 161.372 592.752 C 160.589 591.238, 159.719 590, 159.439 590 C 159.159 590, 159.460 591.013, 160.108 592.250 M 250.131 599 C 253.024 603.516, 263.373 615.961, 263.844 615.490 C 264.042 615.291, 261.571 612.030, 258.352 608.242 C 255.134 604.454, 251.463 600.037, 250.195 598.427 L 247.890 595.500 250.131 599 M 228.608 599 C 229.871 601.701, 237.779 612.571, 239.551 614.042 C 240.504 614.833, 239.082 612.554, 236.391 608.979 C 233.701 605.403, 230.692 601.358, 229.704 599.989 C 228.716 598.620, 228.223 598.175, 228.608 599 M 405.500 611.555 C 403.850 612.921, 399.125 616.349, 395 619.174 C 387.104 624.582, 383.416 627.630, 388.500 624.548 C 393.354 621.605, 406.960 611.753, 408.150 610.320 C 409.790 608.343, 408.853 608.780, 405.500 611.555 M 244 619.363 C 245.925 621.460, 249.300 624.564, 251.500 626.260 C 256.176 629.864, 254.815 628.416, 246.500 620.942 C 242.574 617.413, 241.710 616.867, 244 619.363 M 160 623.312 C 160 623.974, 171.284 631.090, 176.750 633.875 C 183.650 637.391, 181.605 635.519, 173.750 631.129 C 169.762 628.900, 165.037 626.115, 163.250 624.940 C 161.463 623.765, 160 623.032, 160 623.312 M 258.450 631.360 C 260.549 633.271, 271.328 639.021, 272.721 638.974 C 273.150 638.959, 270.241 637.218, 266.259 635.103 C 262.276 632.989, 258.430 630.864, 257.712 630.380 C 256.993 629.896, 257.326 630.337, 258.450 631.360 M 202.610 645.456 C 204.321 646.246, 207.021 647.148, 208.610 647.461 C 211.083 647.948, 210.995 647.832, 208 646.658 C 202.599 644.540, 198.782 643.689, 202.610 645.456 M 574.922 649.274 C 571.490 651.586, 566.967 657.396, 567.040 659.398 C 567.062 660.004, 567.793 659.150, 568.665 657.500 C 571.113 652.867, 573.153 650.877, 577.500 648.881 C 579.700 647.870, 580.779 647.034, 579.898 647.022 C 579.017 647.010, 576.777 648.023, 574.922 649.274 M 593.442 649.953 C 595.060 651.019, 597.420 653.604, 598.687 655.696 C 599.953 657.788, 600.992 659.103, 600.995 658.618 C 601.012 655.692, 593.959 647.984, 591.285 648.007 C 590.853 648.010, 591.824 648.886, 593.442 649.953 M 671.354 651.750 C 673.232 654.736, 681.308 666.598, 681.737 667 C 682.031 667.275, 681.696 666.375, 680.993 665 C 679.406 661.895, 671.860 651, 671.296 651 C 671.068 651, 671.094 651.337, 671.354 651.750 M 660.136 669.994 C 669.485 682.486, 683.152 694.181, 685.573 691.760 C 685.815 691.518, 684.286 690.803, 682.175 690.171 C 678.394 689.038, 673.489 684.463, 661.621 671 C 657.603 666.441, 657.348 666.269, 660.136 669.994 M 236.564 685.250 C 239.687 689.513, 242.441 693, 242.683 693 C 243.308 693, 237.321 684.771, 233.820 680.816 C 232.206 678.992, 233.440 680.987, 236.564 685.250 M 198.756 717.843 C 198.896 736.354, 199.136 757.125, 199.288 764 C 199.441 770.875, 199.656 756.250, 199.767 731.500 C 199.878 706.750, 199.639 685.979, 199.235 685.343 C 198.831 684.707, 198.615 699.332, 198.756 717.843 M 303.455 726 C 303.455 747.725, 303.587 756.612, 303.749 745.750 C 303.910 734.888, 303.910 717.112, 303.749 706.250 C 303.587 695.388, 303.455 704.275, 303.455 726 M 386.250 699.735 C 388.863 699.941, 393.137 699.941, 395.750 699.735 C 398.363 699.529, 396.225 699.360, 391 699.360 C 385.775 699.360, 383.637 699.529, 386.250 699.735 M 529.768 699.725 C 531.565 699.947, 534.265 699.943, 535.768 699.715 C 537.271 699.486, 535.800 699.304, 532.500 699.310 C 529.200 699.315, 527.971 699.502, 529.768 699.725 M 599.694 700.122 C 600.350 700.918, 601.064 704.254, 601.280 707.535 C 601.654 713.211, 601.669 713.165, 601.587 706.580 C 601.521 701.369, 601.129 699.538, 600 699.167 C 598.797 698.772, 598.736 698.961, 599.694 700.122 M 677.250 699.735 C 679.862 699.941, 684.138 699.941, 686.750 699.735 C 689.362 699.529, 687.225 699.360, 682 699.360 C 676.775 699.360, 674.638 699.529, 677.250 699.735 M 811.768 699.725 C 813.565 699.947, 816.265 699.943, 817.768 699.715 C 819.271 699.486, 817.800 699.304, 814.500 699.310 C 811.200 699.315, 809.971 699.502, 811.768 699.725 M 889.250 699.735 C 891.862 699.941, 896.138 699.941, 898.750 699.735 C 901.362 699.529, 899.225 699.360, 894 699.360 C 888.775 699.360, 886.638 699.529, 889.250 699.735 M 780.212 710.750 C 779.993 722.384, 780.586 723.945, 783.444 719.250 L 785.119 716.500 783.094 718.818 L 781.069 721.136 780.747 710.318 L 780.425 699.500 780.212 710.750 M 498.310 707.500 C 498.315 710.800, 498.502 712.029, 498.725 710.232 C 498.947 708.435, 498.943 705.735, 498.715 704.232 C 498.486 702.729, 498.304 704.200, 498.310 707.500 M 829.195 705.456 C 830.677 707.130, 832.336 709.625, 832.882 711 C 833.599 712.810, 833.891 713.006, 833.937 711.711 C 833.971 710.727, 832.313 708.233, 830.250 706.167 C 828.188 704.102, 827.713 703.782, 829.195 705.456 M 869 705.062 C 865.975 706.726, 862.825 708.831, 862 709.739 C 860.644 711.232, 860.663 711.268, 862.204 710.111 C 863.141 709.408, 866.741 707.305, 870.204 705.439 C 873.667 703.572, 876.050 702.043, 875.500 702.041 C 874.950 702.038, 872.025 703.398, 869 705.062 M 414.500 704.681 C 416.150 705.562, 419.300 707.673, 421.500 709.372 C 423.700 711.071, 424.825 711.606, 424 710.560 C 422.249 708.340, 414.093 702.982, 412.554 703.040 C 411.974 703.062, 412.850 703.801, 414.500 704.681 M 795.400 705.876 C 793.255 707.458, 789.925 710.484, 788 712.601 C 785.295 715.576, 785.749 715.319, 790 711.467 C 793.025 708.725, 796.625 705.723, 798 704.794 C 799.375 703.865, 800.230 703.081, 799.900 703.052 C 799.570 703.024, 797.545 704.294, 795.400 705.876 M 548.056 707.348 C 549.282 709.465, 550.612 713.740, 551.011 716.848 C 551.700 722.205, 551.745 722.277, 551.869 718.218 C 552.007 713.702, 550.343 708.834, 547.521 705.500 C 546.571 704.378, 546.807 705.190, 548.056 707.348 M 216.221 747.250 C 216.343 769.938, 216.566 781.975, 216.717 774 C 217.418 737.099, 217.432 705.999, 216.750 705.999 C 216.338 706, 216.100 724.563, 216.221 747.250 M 675.500 711.500 C 677.902 712.321, 687.062 712.655, 685.835 711.877 C 685.101 711.411, 682.250 711.059, 679.500 711.094 C 676.750 711.129, 674.950 711.312, 675.500 711.500 M 642.089 716.750 C 638.250 721.234, 631.973 731.766, 632.023 733.640 C 632.035 734.113, 633.598 731.618, 635.497 728.095 C 637.395 724.573, 640.786 719.510, 643.033 716.845 C 645.280 714.180, 646.902 712, 646.637 712 C 646.372 712, 644.326 714.138, 642.089 716.750 M 427.111 716.463 C 428.273 718.433, 429.819 721.948, 430.545 724.273 C 431.272 726.598, 431.892 727.600, 431.923 726.500 C 431.991 724.121, 427.678 714.537, 426.101 713.562 C 425.494 713.187, 425.948 714.492, 427.111 716.463 M 259.866 716.500 C 260.984 718.150, 263.083 720.850, 264.532 722.500 L 267.165 725.500 265.134 722.500 C 264.016 720.850, 261.917 718.150, 260.468 716.500 L 257.835 713.500 259.866 716.500 M 397.625 716.007 C 400.744 719.666, 402.106 722.681, 402.983 727.872 C 403.697 732.096, 403.773 732.195, 403.860 729 C 403.978 724.694, 401.095 718.177, 397.891 715.507 L 395.500 713.514 397.625 716.007 M 572.370 735 C 572.370 740.775, 572.535 743.138, 572.737 740.250 C 572.939 737.362, 572.939 732.638, 572.737 729.750 C 572.535 726.862, 572.370 729.225, 572.370 735 M 270.140 730.545 C 271.935 733.045, 274.076 735.632, 274.897 736.295 C 275.718 736.958, 274.448 734.913, 272.075 731.750 C 266.968 724.945, 265.431 723.988, 270.140 730.545 M 473.450 760.500 C 473.451 779.750, 473.585 787.483, 473.749 777.685 C 473.913 767.888, 473.912 752.138, 473.748 742.685 C 473.584 733.233, 473.450 741.250, 473.450 760.500 M 829 730.123 C 826.774 732.699, 824.226 734.469, 822 734.984 C 818.881 735.707, 818.796 735.806, 821.215 735.898 C 824.013 736.003, 830.145 731.465, 832.073 727.863 C 833.530 725.140, 832.913 725.594, 829 730.123 M 525.787 729.500 C 528.614 733.747, 531.665 736.293, 533.192 735.682 C 534.077 735.327, 533.961 735.132, 532.833 735.079 C 531.916 735.036, 529.506 733.087, 527.478 730.750 C 525.367 728.318, 524.644 727.783, 525.787 729.500 M 755.448 760 C 755.448 778.425, 755.583 785.962, 755.748 776.750 C 755.913 767.538, 755.913 752.462, 755.748 743.250 C 755.583 734.038, 755.448 741.575, 755.448 760 M 807.919 730.699 C 809.346 733.560, 812.913 736.023, 815.473 735.914 C 816.895 735.854, 816.605 735.564, 814.500 734.944 C 812.850 734.458, 810.448 732.809, 809.161 731.280 C 807.401 729.188, 807.094 729.044, 807.919 730.699 M 348 734.996 C 348 741.322, 362.713 744.151, 368.234 738.886 L 371.500 735.773 368.173 738.386 C 362.994 742.456, 355.924 742.124, 351.400 737.600 C 349.530 735.730, 348 734.558, 348 734.996 M 501.439 766 C 501.439 781.125, 501.578 787.313, 501.748 779.750 C 501.917 772.188, 501.917 759.813, 501.748 752.250 C 501.578 744.688, 501.439 750.875, 501.439 766 M 727.349 747 C 727.349 751.675, 727.522 753.587, 727.732 751.250 C 727.943 748.913, 727.943 745.087, 727.732 742.750 C 727.522 740.413, 727.349 742.325, 727.349 747 M 783.438 767.500 C 783.437 782.350, 783.576 788.564, 783.747 781.310 C 783.918 774.055, 783.918 761.905, 783.748 754.310 C 783.578 746.714, 783.438 752.650, 783.438 767.500 M 840.370 759 C 840.370 764.775, 840.535 767.138, 840.737 764.250 C 840.939 761.362, 840.939 756.638, 840.737 753.750 C 840.535 750.862, 840.370 753.225, 840.370 759 M 262 766 C 266.984 772.600, 271.287 778, 271.562 778 C 271.837 778, 267.984 772.600, 263 766 C 258.016 759.400, 253.713 754, 253.438 754 C 253.163 754, 257.016 759.400, 262 766 M 371.624 776.539 C 371.281 777.432, 371.066 780.264, 371.147 782.832 C 371.291 787.400, 371.309 787.372, 371.974 781.500 C 372.701 775.092, 372.620 773.943, 371.624 776.539 M 660.044 776.300 C 659.767 781.310, 673.528 796.034, 678.446 795.991 C 679.026 795.985, 677.220 794.673, 674.433 793.075 C 669.153 790.047, 665.752 786.275, 662.191 779.500 C 661.035 777.300, 660.069 775.860, 660.044 776.300 M 880.474 788.796 C 885.496 794.074, 893.460 798.137, 898.288 797.884 C 900.301 797.778, 900.320 797.728, 898.500 797.320 C 890.817 795.599, 886.045 793.225, 881.027 788.630 L 875.500 783.568 880.474 788.796 M 930.977 786.445 C 929.615 787.789, 925.826 790.489, 922.559 792.445 C 919.291 794.400, 917.084 796, 917.654 796 C 919.184 796, 930.197 788.648, 932.405 786.153 C 934.991 783.230, 934.037 783.425, 930.977 786.445 M 433.115 787.694 C 433.041 789.759, 433.795 791.721, 435.250 793.243 C 436.488 794.538, 436.866 794.787, 436.092 793.796 C 435.318 792.804, 434.357 790.307, 433.957 788.247 C 433.233 784.516, 433.229 784.514, 433.115 787.694 M 372.004 788.346 C 371.987 792.135, 380.020 798.929, 383.085 797.717 C 384.025 797.346, 383.819 797.131, 382.473 797.079 C 379.661 796.969, 376.184 794.350, 373.918 790.633 C 372.867 788.910, 372.006 787.881, 372.004 788.346 M 199.160 791.800 C 199.072 793.614, 198.313 796.427, 197.474 798.050 C 196.635 799.672, 196.174 801, 196.449 801 C 197.788 801, 200.070 794.498, 199.719 791.686 L 199.320 788.500 199.160 791.800 M 931.064 799.291 C 925.958 805.010, 925.614 805.570, 929.396 802 C 933.533 798.095, 938.754 791.921, 937.818 792.041 C 937.643 792.063, 934.604 795.326, 931.064 799.291 M 448.500 794.235 C 447.400 794.881, 444.700 795.711, 442.500 796.079 L 438.500 796.750 442 796.833 C 443.925 796.879, 447.075 796.054, 449 795 C 450.925 793.946, 452.050 793.079, 451.500 793.072 C 450.950 793.066, 449.600 793.589, 448.500 794.235 M 643.500 800.839 C 648.079 805.729, 657.082 811.994, 659.500 811.973 C 660.050 811.968, 658.025 810.603, 655 808.940 C 651.975 807.277, 647.025 803.572, 644 800.708 L 638.501 795.500 643.500 800.839 M 344 798.582 C 344 800.923, 351.161 809.506, 354.500 811.167 C 355.600 811.714, 354.977 810.921, 353.115 809.403 C 351.253 807.885, 348.441 804.611, 346.865 802.126 C 345.289 799.641, 344 798.046, 344 798.582 M 401.932 801.587 C 400.044 803.544, 395.861 806.912, 392.636 809.072 C 389.411 811.233, 387.194 813, 387.710 813 C 389.864 813, 406.732 799.399, 405.771 798.437 C 405.547 798.213, 403.819 799.631, 401.932 801.587 M 857.392 802.425 C 860.082 804.986, 863.232 807.538, 864.392 808.096 C 865.551 808.654, 865.150 808.074, 863.500 806.807 C 861.850 805.540, 858.700 802.988, 856.500 801.136 C 853.865 798.918, 854.170 799.358, 857.392 802.425 M 408.813 804.250 C 410.927 807.669, 418.368 814, 420.274 814 C 420.888 814, 419.349 812.705, 416.852 811.121 C 414.356 809.538, 411.306 806.613, 410.075 804.621 C 408.844 802.630, 407.604 801, 407.320 801 C 407.036 801, 407.708 802.462, 408.813 804.250 M 712.394 805.327 C 710.136 807.072, 707.436 809.079, 706.394 809.787 C 705.353 810.495, 706.411 810.075, 708.747 808.854 C 711.083 807.634, 713.974 805.592, 715.172 804.317 C 718.064 801.239, 717.348 801.499, 712.394 805.327 M 200.250 813.745 C 205.062 813.928, 212.937 813.928, 217.750 813.745 C 222.563 813.561, 218.625 813.411, 209 813.411 C 199.375 813.411, 195.438 813.561, 200.250 813.745 M 307.776 813.733 C 310.128 813.945, 313.728 813.942, 315.776 813.727 C 317.824 813.512, 315.900 813.339, 311.500 813.343 C 307.100 813.346, 305.424 813.522, 307.776 813.733 M 481.750 813.746 C 487.387 813.924, 496.613 813.924, 502.250 813.746 C 507.887 813.568, 503.275 813.422, 492 813.422 C 480.725 813.422, 476.113 813.568, 481.750 813.746 M 573.250 813.748 C 580.813 813.917, 593.188 813.917, 600.750 813.748 C 608.313 813.578, 602.125 813.439, 587 813.439 C 571.875 813.439, 565.688 813.578, 573.250 813.748 M 761.304 813.747 C 767.247 813.924, 776.697 813.923, 782.304 813.745 C 787.912 813.567, 783.050 813.422, 771.500 813.423 C 759.950 813.424, 755.362 813.570, 761.304 813.747 M 368.250 815.728 C 370.313 815.944, 373.688 815.944, 375.750 815.728 C 377.813 815.513, 376.125 815.336, 372 815.336 C 367.875 815.336, 366.188 815.513, 368.250 815.728 M 676.250 815.735 C 678.862 815.941, 683.138 815.941, 685.750 815.735 C 688.362 815.529, 686.225 815.360, 681 815.360 C 675.775 815.360, 673.638 815.529, 676.250 815.735 M 889.250 815.735 C 891.862 815.941, 896.138 815.941, 898.750 815.735 C 901.362 815.529, 899.225 815.360, 894 815.360 C 888.775 815.360, 886.638 815.529, 889.250 815.735" stroke="none" fill="#657b77" fill-rule="evenodd"/><path d="M 247.500 231.631 C 69.557 259.423, 0.887 474.065, 130.128 598.500 C 259.636 723.191, 477.962 635.417, 489.550 454 C 497.858 323.933, 375.608 211.622, 247.500 231.631 M 305.513 260.314 C 304.681 262.306, 304 264.330, 304 264.813 C 304 266.714, 295.530 278.791, 290.656 283.841 C 278.230 296.715, 263.294 304.036, 229.050 314.041 C 180.354 328.268, 145.932 355.208, 127.145 393.795 C 119.991 408.489, 120.453 408.622, 130.328 394.718 C 153.790 361.683, 178.207 345.053, 226.611 329.138 C 280.065 311.564, 297.619 297.628, 305.942 266.157 C 308.276 257.333, 308.049 254.245, 305.513 260.314 M 324.736 271.050 C 322.179 317.760, 295.124 346.389, 228.791 372.578 C 135.958 409.228, 92.240 464.682, 108.716 524.884 C 109.562 527.973, 110.595 532.075, 111.012 534 C 111.532 536.400, 111.807 533.885, 111.889 526 C 112.554 461.795, 148.192 421.897, 237.720 385.128 C 299.835 359.617, 327.445 326.182, 327.110 276.879 C 327.001 260.964, 325.491 257.255, 324.736 271.050 M 355.369 269.500 C 369.548 306.555, 352.997 348.357, 305.480 395.500 C 292.175 408.700, 278.715 422.408, 275.569 425.961 C 227.259 480.524, 279.732 556.243, 366 556.453 C 398.804 556.533, 411.867 543.813, 401.668 521.720 C 398.231 514.274, 398.210 514.381, 403.522 511.885 C 418.598 504.798, 414.710 495.727, 396.347 495.144 C 381.333 494.668, 379.774 491.871, 394.010 490.951 C 410.416 489.891, 417.526 480.797, 410.385 470.005 C 405.849 463.152, 408.834 458.460, 419.859 455.112 C 427.587 452.764, 432.373 448.913, 433.280 444.310 C 434.489 438.177, 435.018 439.007, 403.704 397.915 C 399.029 391.780, 396.133 387.096, 396.470 386.216 C 405.422 362.890, 396.534 319.363, 377.233 292 C 368.261 279.280, 353.169 263.749, 355.369 269.500 M 359.724 352.527 C 353.757 354.718, 347.334 359.868, 343.344 365.663 C 338.844 372.196, 339.206 372.709, 346.098 369.562 C 358.525 363.886, 369.978 362.689, 383.482 365.656 C 392.039 367.537, 392.772 367.277, 390.997 362.992 C 387.025 353.404, 371.493 348.207, 359.724 352.527 M 357.250 394.262 C 346.201 396.919, 363.857 410.778, 379.577 411.787 C 388.354 412.350, 388.917 411.384, 384.151 403.946 C 377.793 394.022, 369.965 391.205, 357.250 394.262 M 237 419.893 C 165.802 455.902, 134.442 506.636, 148.543 563 C 153.671 583.497, 167.305 607.076, 180.245 617.825 L 183.465 620.500 181.188 617 C 137.159 549.314, 162.733 469.100, 244.750 417.641 C 247.088 416.175, 249 414.756, 249 414.487 C 249 413.793, 249.566 413.538, 237 419.893 M 228.765 470.688 C 227.971 472.234, 225.712 476.425, 223.744 480 C 189.733 541.803, 223.273 628.344, 287.082 643.424 L 297.248 645.827 296.602 641.163 C 292.328 610.312, 300.086 577.783, 316.075 559.511 C 322.164 552.554, 322.178 552.039, 316.250 553.141 C 295.537 556.993, 278.336 579.985, 272.306 611.882 C 270.198 623.035, 270.897 623.080, 260.719 611.142 C 232.519 578.068, 220.627 543.308, 224.045 503.943 C 225.163 491.072, 228.208 474.349, 230.066 470.876 C 230.669 469.750, 230.948 468.614, 230.685 468.352 C 230.423 468.090, 229.559 469.141, 228.765 470.688 M 578.030 648.583 C 561.187 655.889, 564.487 680.298, 582.520 681.793 C 589.552 682.376, 594.418 679.987, 598.135 674.126 C 607.220 659.800, 593.209 642, 578.030 648.583 M 654.075 648.752 C 647.759 651.976, 647.862 652.884, 655.712 663.177 C 685.857 702.707, 703.284 699.710, 676.587 659.588 C 668.816 647.908, 662.079 644.666, 654.075 648.752 M 185.074 669.862 C 183.729 672.375, 185.364 674.414, 190.992 677.242 C 193.462 678.484, 196.500 681.029, 197.742 682.898 L 200 686.296 200 740.698 C 200 803.363, 200.656 798.972, 190.532 804.059 C 183.926 807.379, 182.515 809.523, 185.375 811.897 C 186.340 812.697, 193.593 812.958, 209.625 812.769 L 232.500 812.500 232.500 809.531 C 232.500 806.881, 231.965 806.366, 227.500 804.725 C 220.167 802.030, 217.754 799.201, 216.891 792.284 C 215.924 784.542, 215.796 705.989, 216.750 706.039 C 217.162 706.060, 218.906 707.973, 220.625 710.289 C 222.343 712.605, 229.566 722.150, 236.677 731.500 C 243.787 740.850, 259.654 761.775, 271.937 778 C 301.524 817.081, 297.197 813.123, 309.967 812.782 L 320.500 812.500 321 749.500 C 321.358 704.403, 321.829 685.932, 322.658 684.500 C 324.621 681.110, 328.287 678.347, 333.297 676.480 C 339.084 674.323, 341.187 671.343, 338.377 669.282 C 335.574 667.227, 290.330 667.843, 289.027 669.954 C 287.701 672.103, 289.133 673.904, 294.518 676.857 C 304.015 682.066, 303.461 678.868, 303.780 730.302 C 303.947 757.214, 303.695 775.064, 303.157 774.480 C 302.661 773.941, 285.495 751, 265.011 723.500 C 244.528 696, 226.612 672.263, 225.197 670.750 L 222.626 668 204.348 668 C 187.546 668, 185.990 668.150, 185.074 669.862 M 372.500 702.365 C 351.453 709.208, 340.799 726.999, 351.400 737.600 C 359.960 746.160, 369.837 741.154, 372.866 726.719 C 378.499 699.876, 403.919 707.636, 403.978 736.217 L 404 746.934 384.750 753.076 C 355.841 762.300, 348.414 767.194, 344.515 779.590 C 334.706 810.778, 373.207 827.602, 399.568 803.646 L 405.486 798.268 409.659 804.002 C 421.783 820.664, 453 815.966, 453 797.480 L 453 792.959 449.040 794.980 C 443.368 797.873, 439.450 797.603, 435.923 794.077 L 433 791.154 432.992 764.327 C 432.981 721.989, 430.030 712.692, 414 704.481 C 404.024 699.371, 384.734 698.388, 372.500 702.365 M 486.681 702.480 C 482.380 703.742, 475.022 705.580, 470.329 706.565 C 459.519 708.833, 455.673 717, 465.415 717 C 466.071 717, 468.158 718.599, 470.054 720.554 L 473.500 724.109 473.787 759.075 C 474.117 799.303, 474.178 798.952, 466.077 803.362 C 460.137 806.595, 458.646 808.311, 459.485 810.952 C 460.341 813.651, 514.747 814.215, 516.960 811.548 C 519.028 809.057, 517.210 806.349, 512.222 804.492 C 501.513 800.503, 501.009 798.772, 501.017 766 C 501.026 729.891, 504.030 721, 516.219 721 C 519.385 721, 519.728 721.298, 528.822 731.967 C 535.949 740.329, 549.713 732.512, 550.792 719.489 C 552.783 695.483, 522.644 692.945, 503.968 715.546 L 498.500 722.163 498 711.342 C 497.418 698.742, 497.963 699.169, 486.681 702.480 M 583.500 703.738 C 560.826 709.416, 561.500 709.164, 561.500 711.980 C 561.500 713.874, 562.531 715.030, 565.857 716.864 C 572.930 720.766, 573 721.186, 573 759.903 C 573 800.645, 573.389 798.959, 562.688 804.572 C 558.535 806.751, 557.919 807.466, 558.188 809.798 L 558.500 812.500 586 812.781 C 615.863 813.085, 618 812.907, 618 810.103 C 618 807.753, 616.524 806.589, 611.500 804.979 C 600.973 801.605, 601.575 804.815, 601 749.013 C 600.566 706.891, 600.303 700.507, 599 700.380 C 598.175 700.299, 591.200 701.810, 583.500 703.738 M 664.789 702.392 C 597.913 726.070, 629.910 833.804, 697.609 812.894 C 710.454 808.926, 732.782 789.508, 727.820 786.620 C 727.644 786.518, 726.740 785.854, 725.811 785.145 C 724.361 784.038, 723.382 784.442, 718.870 788.008 C 691.496 809.646, 659.646 796.589, 657.260 762.750 L 656.714 755 691.857 755 L 727 755 727 747.549 C 727 712.296, 697.434 690.834, 664.789 702.392 M 760.150 704.439 C 739.340 709.744, 738.364 711.085, 750 718.376 C 761.403 725.521, 758.754 797.254, 746.852 803.632 C 742.209 806.120, 741.500 806.898, 741.500 809.500 L 741.500 812.500 769.115 812.766 C 792.688 812.992, 796.912 812.811, 797.977 811.528 C 799.979 809.115, 798.405 807.069, 792.556 804.483 C 776.285 797.287, 779.724 721, 796.319 721 C 801.622 721, 802.753 721.746, 807.054 728.080 C 816.102 741.403, 834 734.752, 834 718.067 C 834 694.212, 798.797 694.558, 783.963 718.559 C 780.623 723.964, 780 722.775, 780 711 C 780 701.139, 779.819 700.014, 778.250 700.135 C 777.288 700.209, 769.142 702.146, 760.150 704.439 M 879.447 701.403 C 829.409 717.075, 827.031 796.971, 876.141 812.485 C 899.810 819.962, 931.070 808.727, 938.108 790.215 C 940.322 784.394, 935.912 783.028, 930.444 787.840 C 904.507 810.671, 869 794.273, 869 759.464 L 869 755.026 904.250 754.763 L 939.500 754.500 939.289 747.098 C 938.312 712.771, 910.633 691.636, 879.447 701.403 M 670.907 713.307 C 663.614 717.125, 659.110 725.215, 657.061 738.180 C 656.113 744.177, 653.496 743.546, 677.915 743.211 L 699 742.923 699 737.930 C 699 718.174, 685.019 705.920, 670.907 713.307 M 885.500 712.326 C 877.339 715.519, 870.748 725.741, 869.429 737.250 L 868.770 743 889.385 743 C 913.539 743, 911.466 743.381, 911.173 739 C 909.830 718.943, 898.548 707.220, 885.500 712.326 M 391.950 761.874 C 376.127 767.529, 371 772.489, 371 782.144 C 371 799.980, 391.004 803.795, 401.750 788.009 C 404.018 784.677, 405.359 757.906, 403.250 758.052 C 402.837 758.080, 397.753 759.800, 391.950 761.874" stroke="none" fill="#05233a" fill-rule="evenodd"/></svg>